<?xml version="1.0" encoding="utf-8"?>
<svg viewBox="196.132 217.0781 93.5114 75.6757" xmlns="http://www.w3.org/2000/svg">
  <defs>
    <linearGradient gradientUnits="userSpaceOnUse" x1="9.392" y1="-20.832" x2="9.392" y2="5.076" id="gradient-0" gradientTransform="matrix(0.744014, -0.90375, 0.451898, 0.680618, 2.008946, 5.971926)">
      <stop offset="0" style="stop-color: rgba(255, 10, 10, 0.72);"/>
      <stop offset="1" style=""/>
    </linearGradient>
  </defs>
  <path d="M 5.165 -2.225 Q 5.001 -2.225 4.865 -2.263 Q 4.502 -2.399 4.507 -2.805 Q 4.505 -2.834 4.519 -2.892 Q 4.553 -3.027 4.611 -3.027 Q 4.659 -3.027 4.683 -2.853 Q 4.684 -2.582 4.93 -2.524 Q 4.983 -2.505 5.068 -2.495 Q 5.153 -2.486 5.23 -2.486 Q 5.588 -2.486 5.962 -2.689 Q 6.337 -2.892 6.691 -3.206 Q 7.045 -3.52 7.351 -3.854 Q 7.656 -4.188 7.869 -4.458 Q 8.497 -5.271 8.995 -6.107 Q 9.494 -6.944 9.992 -7.853 Q 9.648 -7.601 9.279 -7.476 Q 8.909 -7.35 8.602 -7.321 L 8.592 -7.321 Q 8.495 -7.321 8.512 -7.389 Q 8.532 -7.466 8.652 -7.485 Q 8.945 -7.534 9.292 -7.722 Q 9.639 -7.911 9.967 -8.201 Q 10.296 -8.491 10.516 -8.829 Q 10.549 -8.887 10.674 -8.921 Q 10.798 -8.955 10.914 -8.955 Q 11.021 -8.955 11.096 -8.926 Q 11.171 -8.897 11.134 -8.829 Q 11.069 -8.723 10.99 -8.501 Q 10.91 -8.278 10.857 -8.143 Q 10.784 -7.969 10.702 -7.64 Q 10.599 -7.224 10.507 -6.663 Q 10.416 -6.102 10.38 -5.512 Q 10.344 -4.923 10.39 -4.41 Q 10.437 -3.897 10.605 -3.583 Q 10.773 -3.269 11.102 -3.269 Q 11.44 -3.269 11.822 -3.598 Q 12.204 -3.927 12.578 -4.458 Q 12.953 -4.99 13.282 -5.614 Q 13.612 -6.238 13.852 -6.832 Q 14.092 -7.427 14.203 -7.872 Q 14.263 -8.114 14.278 -8.288 Q 14.304 -8.549 14.279 -8.738 Q 14.253 -8.926 14.226 -9.129 L 14.229 -9.139 Q 14.238 -9.178 14.331 -9.24 Q 14.424 -9.303 14.466 -9.313 Q 14.611 -9.313 14.698 -9.178 Q 14.785 -9.042 14.842 -8.844 Q 14.899 -8.646 14.957 -8.452 Q 15.015 -8.259 15.112 -8.143 Q 15.172 -8.075 15.211 -8.056 Q 15.25 -8.036 15.346 -8.036 L 15.412 -8.065 Q 15.489 -8.065 15.514 -8.051 Q 15.54 -8.036 15.53 -7.959 Q 15.511 -7.882 15.426 -7.833 Q 15.342 -7.785 15.26 -7.766 Q 15.134 -7.766 14.973 -7.896 Q 14.812 -8.027 14.735 -8.104 Q 14.73 -8.046 14.715 -7.988 Q 14.701 -7.93 14.687 -7.872 Q 14.554 -7.34 14.256 -6.687 Q 13.958 -6.035 13.557 -5.377 Q 13.156 -4.719 12.704 -4.168 Q 12.252 -3.617 11.801 -3.279 Q 11.349 -2.94 10.952 -2.94 Q 10.488 -2.94 10.234 -3.221 Q 9.98 -3.501 9.881 -3.975 Q 9.781 -4.449 9.798 -5.019 Q 9.814 -5.59 9.914 -6.185 Q 10.014 -6.779 10.142 -7.292 Q 9.647 -6.509 9.178 -5.812 Q 8.71 -5.116 8.147 -4.41 Q 7.893 -4.091 7.554 -3.719 Q 7.214 -3.346 6.819 -3.003 Q 6.424 -2.66 6.003 -2.442 Q 5.581 -2.225 5.165 -2.225 Z" transform="matrix(8.531892, 0, 0, 6.307882, 157.314731, 287.56098)" style="fill: url(#gradient-0); paint-order: fill; stroke-opacity: 0.16; stroke-width: 0.134773px;"/>
</svg>