<?xml version="1.0" encoding="utf-8"?>
<svg viewBox="0 0 500 500" xmlns="http://www.w3.org/2000/svg">
  <defs>
    <path id="path-0" style="fill: none;" d="M 138.417 281.321 C 162.317 227.185 183.278 191.617 204.11 163.433 C 207.285 159.137 217.853 148.463 220.308 142.735 C 233.207 131.336 227.507 134.636 231.107 131.036 C 232.189 129.954 230.994 134.224 230.207 135.535 C 227.287 140.402 228.768 136.074 227.507 143.635 C 226.164 151.697 226.607 159.76 226.607 167.932 C 222.485 202.141 220.308 227.065 220.308 253.424 C 220.308 264.842 227.069 261.085 232.907 266.923 C 250.885 267.822 272.474 258.838 288.701 250.724 C 319.808 227.619 321.097 206.957 321.097 172.432 C 323.195 146.355 320.433 121.33 326.497 103.139 L 326.497 100.439 C 327.275 100.439 328.475 96.839 330.097 96.839"/>
    <linearGradient gradientUnits="userSpaceOnUse" x1="9.392" y1="-20.832" x2="9.392" y2="5.076" id="gradient-0" gradientTransform="matrix(0.744014, -0.90375, 0.451898, 0.680618, 2.008946, 5.971926)">
      <stop offset="0" style="stop-color: rgba(255, 10, 10, 0.72);"/>
      <stop offset="1" style=""/>
    </linearGradient>
  </defs>
  <path transform="matrix(0.809915, 0, 0, 0.809921, 303.820624, 237.225469)" style="fill: rgb(51, 51, 51);"/>
  <path style="fill: rgb(51, 51, 51);"/>
  <path d="M 6.621 -2.178 Q 6.513 -2.178 6.424 -2.203 Q 6.187 -2.292 6.19 -2.558 Q 6.188 -2.577 6.197 -2.616 Q 6.22 -2.704 6.258 -2.704 Q 6.289 -2.704 6.305 -2.59 Q 6.305 -2.413 6.467 -2.375 Q 6.502 -2.362 6.557 -2.356 Q 6.613 -2.349 6.664 -2.349 Q 6.898 -2.349 7.144 -2.482 Q 7.39 -2.616 7.622 -2.822 Q 7.854 -3.028 8.054 -3.246 Q 8.255 -3.465 8.394 -3.643 Q 8.806 -4.175 9.133 -4.724 Q 9.46 -5.273 9.786 -5.869 Q 9.561 -5.704 9.318 -5.621 Q 9.076 -5.539 8.875 -5.52 L 8.868 -5.52 Q 8.805 -5.52 8.816 -5.564 Q 8.829 -5.615 8.908 -5.628 Q 9.1 -5.659 9.327 -5.783 Q 9.555 -5.907 9.77 -6.097 Q 9.985 -6.287 10.13 -6.509 Q 10.152 -6.547 10.233 -6.569 Q 10.315 -6.592 10.391 -6.592 Q 10.461 -6.592 10.51 -6.572 Q 10.559 -6.553 10.535 -6.509 Q 10.493 -6.439 10.44 -6.293 Q 10.388 -6.148 10.353 -6.059 Q 10.306 -5.945 10.252 -5.729 Q 10.184 -5.456 10.124 -5.089 Q 10.064 -4.721 10.041 -4.334 Q 10.017 -3.947 10.048 -3.611 Q 10.078 -3.275 10.188 -3.069 Q 10.298 -2.863 10.514 -2.863 Q 10.736 -2.863 10.986 -3.078 Q 11.237 -3.294 11.482 -3.643 Q 11.728 -3.992 11.944 -4.401 Q 12.16 -4.81 12.317 -5.2 Q 12.475 -5.59 12.548 -5.881 Q 12.587 -6.04 12.597 -6.154 Q 12.614 -6.325 12.597 -6.449 Q 12.58 -6.572 12.563 -6.706 L 12.564 -6.712 Q 12.571 -6.737 12.632 -6.779 Q 12.693 -6.82 12.72 -6.826 Q 12.815 -6.826 12.872 -6.737 Q 12.929 -6.649 12.966 -6.519 Q 13.004 -6.389 13.042 -6.262 Q 13.08 -6.135 13.144 -6.059 Q 13.183 -6.014 13.209 -6.002 Q 13.234 -5.989 13.297 -5.989 L 13.34 -6.008 Q 13.391 -6.008 13.408 -5.999 Q 13.424 -5.989 13.418 -5.938 Q 13.405 -5.888 13.35 -5.856 Q 13.294 -5.824 13.24 -5.812 Q 13.158 -5.812 13.053 -5.897 Q 12.947 -5.983 12.896 -6.033 Q 12.893 -5.995 12.884 -5.957 Q 12.874 -5.919 12.865 -5.881 Q 12.778 -5.533 12.582 -5.104 Q 12.387 -4.676 12.124 -4.245 Q 11.861 -3.814 11.565 -3.453 Q 11.269 -3.091 10.972 -2.869 Q 10.676 -2.647 10.416 -2.647 Q 10.112 -2.647 9.945 -2.831 Q 9.778 -3.015 9.713 -3.326 Q 9.648 -3.636 9.659 -4.011 Q 9.67 -4.385 9.735 -4.775 Q 9.801 -5.165 9.885 -5.501 Q 9.56 -4.987 9.253 -4.531 Q 8.945 -4.074 8.576 -3.611 Q 8.41 -3.402 8.187 -3.158 Q 7.965 -2.914 7.706 -2.688 Q 7.447 -2.463 7.17 -2.321 Q 6.894 -2.178 6.621 -2.178 Z" transform="matrix(8.531892, 0, 0, 6.307882, 157.314731, 287.56098)" style="fill: url(#gradient-0); paint-order: fill; stroke-opacity: 0.16; stroke-width: 0.134773px;"/>
</svg>