<?xml version="1.0" encoding="utf-8"?>
<svg viewBox="0 0 500 500" xmlns="http://www.w3.org/2000/svg" xmlns:xlink="http://www.w3.org/1999/xlink" xmlns:bx="https://boxy-svg.com">
  <defs>
    <path id="path-0" style="fill: none;" d="M 138.417 281.321 C 162.317 227.185 183.278 191.617 204.11 163.433 C 207.285 159.137 217.853 148.463 220.308 142.735 C 233.207 131.336 227.507 134.636 231.107 131.036 C 232.189 129.954 230.994 134.224 230.207 135.535 C 227.287 140.402 228.768 136.074 227.507 143.635 C 226.164 151.697 226.607 159.76 226.607 167.932 C 222.485 202.141 220.308 227.065 220.308 253.424 C 220.308 264.842 227.069 261.085 232.907 266.923 C 250.885 267.822 272.474 258.838 288.701 250.724 C 319.808 227.619 321.097 206.957 321.097 172.432 C 323.195 146.355 320.433 121.33 326.497 103.139 L 326.497 100.439 C 327.275 100.439 328.475 96.839 330.097 96.839"/>
    <style bx:fonts="Allura">@import url(https://fonts.googleapis.com/css2?family=Allura%3Aital%2Cwght%400%2C400&amp;display=swap);</style>
    <linearGradient gradientUnits="userSpaceOnUse" x1="9.392" y1="-20.832" x2="9.392" y2="5.076" id="gradient-0" gradientTransform="matrix(0.744014, -0.90375, 0.451898, 0.680618, 2.008946, 5.971926)">
      <stop offset="0" style="stop-color: rgba(255, 10, 10, 0.72);"/>
      <stop offset="1" style=""/>
    </linearGradient>
  </defs>
  <text style="white-space: pre; fill: rgb(51, 51, 51); font-family: Arial, sans-serif; font-size: 28px;" transform="matrix(0.809915, 0, 0, 0.809921, 303.820624, 237.225469)"> </text>
  <text style="fill: rgb(51, 51, 51); font-family: Arial, sans-serif; font-size: 28px; white-space: pre;"><textPath xlink:href="#path-0"> </textPath></text>
  <text style="fill: url(#gradient-0); font-family: Allura; font-size: 6.34127px; font-style: italic; paint-order: fill; stroke-opacity: 0.16; stroke-width: 0.134773px; white-space: pre;" transform="matrix(8.531892, 0, 0, 6.307882, 157.314731, 287.56098)" dx="7.383" dy="-2.996">N</text>
</svg>