<?xml version="1.0"?>
<svg version="1.1" xmlns="http://www.w3.org/2000/svg" width="470px" height="250px" style=""><path fill="#" d="M212.0703125,123.8828125q0,0.623046875-0.107421875,0.837890625q0,0.236328125-0.193359375,0.4404296875t-0.451171875,0.2255859375q-0.04296875,0.04296875-0.408203125,0.04296875q-0.30078125,0-0.38671875-0.04296875q-0.12890625,0.12890625-0.365234375,0.12890625q-0.0859375,0-0.2578125-0.0859375q-0.12890625,0.12890625-0.34375,0.12890625q-0.107421875,0-0.279296875-0.0859375q-0.171875,0.021484375-0.365234375,0.107421875t-0.4189453125,0.21484375t-0.3544921875,0.193359375q-0.021484375,0.0859375-0.04296875,0.2900390625t-0.04296875,0.2900390625q-0.0859375,0.21484375-0.0859375,0.623046875q0,0.12890625,0.021484375,0.4189453125t0.021484375,0.4189453125q0,0.2578125-0.0859375,0.6015625q-0.21484375,0.81640625-0.21484375,1.58984375q0.021484375,0.0859375,0.0966796875,0.2900390625t0.0751953125,0.2900390625q0,0.171875-0.0859375,0.2578125q0,0.064453125,0.021484375,0.2041015625t0.021484375,0.2255859375q0,0.236328125-0.0859375,0.580078125q-0.04296875,0.171875-0.04296875,0.47265625q0,0.279296875,0.12890625,0.880859375t0.12890625,0.923828125l0.0859375,0q0.365234375,0,0.365234375,0.279296875q0,0.107421875-0.064453125,0.171875q-0.107421875,0.150390625-0.38671875,0.34375q0.0859375,0.0859375,0.0859375,0.171875q0,0.021484375-0.0859375,0.193359375l0,0.2578125q0,0.408203125-0.0859375,0.751953125q0,1.138671875-0.12890625,1.482421875q0.04296875,0.12890625,0.04296875,0.537109375q0,0.580078125-0.04296875,0.751953125q0.2578125-0.2578125,0.515625-0.2578125q0.150390625,0,0.150390625,0.171875l0,0.0859375q-0.021484375,0.0859375-0.150390625,0.193359375t-0.322265625,0.21484375t-0.236328125,0.150390625l0,0.365234375q0,0.794921875,0.12890625,0.837890625q0.12890625,0,0.12890625,0.21484375q0,0.0859375-0.04296875,0.30078125t-0.04296875,0.279296875q0.04296875,0.0859375,0.04296875,0.38671875q0,0.21484375-0.04296875,0.30078125q0.0859375,0.2578125,0.0859375,0.666015625q0,0.6015625-0.12890625,0.923828125q-0.04296875,0.171875-0.04296875,0.623046875q0,0.38671875-0.04296875,0.6015625q0.04296875,0.0859375,0.04296875,0.451171875q0,0.30078125-0.04296875,0.4296875q0.04296875,0.0859375,0.04296875,0.322265625l0,0.12890625q0.12890625,0.38671875,0.12890625,1.138671875q0,0.408203125-0.04296875,0.537109375q0,0.021484375-0.021484375,0.0966796875t-0.021484375,0.1181640625q0,0.0859375,0.04296875,0.2900390625t0.04296875,0.2900390625q0,0.12890625-0.04296875,0.21484375q0.04296875,0.171875,0.04296875,0.55859375q0,0.537109375-0.04296875,0.751953125q0,0.193359375-0.1826171875,0.38671875t-0.3974609375,0.193359375l-0.0859375,0q-0.107421875-0.04296875-0.494140625-0.0859375t-0.47265625-0.0859375q-0.04296875,0-0.12890625-0.021484375t-0.12890625-0.021484375q-0.171875,0-0.537109375,0.064453125t-0.55859375,0.064453125q-0.0859375-0.021484375-0.1611328125-0.0537109375t-0.1181640625-0.0322265625q-0.0859375,0-0.171875,0.04296875q-0.30078125,0-0.4296875-0.04296875q-0.34375,0-0.666015625,0.12890625q-0.0859375,0.04296875-0.30078125,0.04296875q-0.279296875,0-0.365234375-0.04296875q-0.107421875-0.021484375-0.171875-0.064453125l-0.04296875-0.021484375q-0.021484375,0-0.0322265625,0.0107421875t-0.04296875,0.0322265625t-0.0966796875,0.04296875q-0.12890625,0.04296875-0.365234375,0.04296875q-0.04296875-0.04296875-0.171875-0.04296875q-0.107421875,0-0.3115234375,0.0859375t-0.3330078125,0.0859375q-0.408203125,0-0.923828125-0.0859375q-0.171875-0.021484375-0.322265625-0.1611328125t-0.236328125-0.2685546875t-0.21484375-0.3544921875t-0.193359375-0.3115234375q-0.322265625-0.64453125-0.451171875-0.837890625q-0.021484375-0.021484375-0.12890625-0.171875t-0.171875-0.193359375q-0.04296875,0.04296875-0.193359375,0.04296875q-0.2578125,0-0.2578125-0.171875q0-0.150390625,0.171875-0.2578125q-0.12890625-0.150390625-0.6875-1.181640625q-0.12890625-0.2578125-0.580078125-0.623046875t-0.580078125-0.623046875q-0.666015625-0.9453125-0.880859375-1.310546875q-0.193359375-0.2578125-0.2578125-0.2578125q-0.04296875,0-0.1611328125,0.0537109375t-0.2685546875,0.0751953125q-0.322265625,0-0.322265625-0.171875q0-0.2578125,0.279296875-0.537109375q0.12890625-0.12890625,0.12890625-0.171875t-0.0859375-0.107421875t-0.12890625-0.150390625t-0.2041015625-0.2255859375t-0.2041015625-0.2255859375q-0.021484375-0.021484375-0.0859375,0l-0.1611328125,0.0537109375t-0.1396484375,0.0322265625q-0.12890625,0-0.12890625-0.21484375q0.021484375-0.12890625,0.0966796875-0.1611328125t0.0751953125-0.0537109375t-0.021484375-0.0751953125t-0.021484375-0.0751953125q-0.064453125-0.021484375-0.193359375-0.30078125q-0.150390625-0.193359375-0.4619140625-0.5908203125t-0.4619140625-0.5908203125q-0.623046875-0.794921875-0.81640625-1.375q-0.193359375,0.193359375-0.408203125,0.193359375q-0.12890625,0-0.12890625-0.193359375l0-0.0859375q0-0.064453125,0.1396484375-0.2255859375t0.1181640625-0.2041015625q-0.193359375-0.193359375-0.34375-0.494140625q-0.322265625-0.2578125-0.666015625-0.837890625q-0.04296875-0.021484375-0.171875-0.064453125t-0.12890625-0.107421875q0-0.0859375,0.04296875-0.12890625q-0.021484375-0.04296875-0.150390625-0.1396484375t-0.150390625-0.1181640625q-0.34375-0.451171875-0.408203125-0.623046875q-0.0859375-0.12890625-0.21484375-0.47265625t-0.21484375-0.494140625q-0.9453125-1.568359375-1.41796875-1.71875q-0.04296875,0-0.12890625-0.1611328125t-0.1826171875-0.3544921875l-0.1181640625-0.236328125q-0.04296875-0.0859375-0.1826171875-0.236328125t-0.1826171875-0.236328125q-0.193359375-0.193359375-0.5693359375-0.623046875t-0.5693359375-0.623046875q0.04296875,0.494140625,0.04296875,1.50390625l0,0.623046875q0.0859375-0.04296875,0.171875-0.04296875t0.0859375,0.0859375q0,0.064453125-0.12890625,0.2578125t-0.12890625,0.21484375q-0.04296875,0.0859375-0.04296875,0.279296875q0,0.0859375,0.021484375,0.2470703125t0.021484375,0.2255859375l0,0.171875l0,0.408203125l0,0.21484375q0.04296875,0.0859375,0.04296875,0.30078125q0,0.279296875-0.04296875,0.365234375q0.04296875,0.2578125,0.04296875,0.794921875q0,0.365234375-0.04296875,1.095703125t-0.04296875,1.095703125q0,0.580078125,0.04296875,0.837890625q0.171875-0.0859375,0.21484375-0.0859375q0.12890625,0,0.12890625,0.21484375q0,0.365234375-0.12890625,0.494140625q-0.171875,0.171875-0.171875,0.38671875q0,0.171875-0.04296875,0.34375q0.0859375,0.34375,0.0859375,0.623046875q0,0.0859375-0.021484375,0.2578125t-0.021484375,0.193359375q0.04296875,0.0859375,0.04296875,0.47265625q0,0.408203125-0.04296875,0.537109375q-0.0859375,0.34375-0.0859375,0.966796875q0,1.24609375,0.4296875,1.353515625q0.279296875,0.021484375,0.8486328125,0.12890625t0.8701171875,0.12890625q0.193359375,0,0.408203125,0.150390625q0.0859375-0.04296875,0.2578125-0.04296875q0.04296875,0,0.12890625,0.021484375t0.12890625,0.021484375t0.1396484375-0.021484375t0.1396484375-0.021484375l0.0859375,0q0.171875,0,0.6875,0.12890625q0.580078125,0.04296875,0.580078125,2.19140625q0,0.21484375-0.021484375,0.537109375t-0.021484375,0.38671875q0.04296875-0.04296875,0.171875-0.04296875q0.21484375,0,0.21484375,0.171875q0,0.12890625-0.171875,0.236328125q0.12890625,0.064453125,0.12890625,0.171875q0,0.04296875-0.1181640625,0.12890625t-0.1396484375,0.12890625q0,0.04296875,0.021484375,0.150390625t0.021484375,0.150390625q-0.064453125,0.494140625-0.6015625,0.494140625q-0.150390625,0-0.408203125-0.0859375q-0.6875-0.0859375-0.966796875-0.0859375q-0.666015625,0-0.837890625-0.0859375q-0.193359375,0.0859375-0.515625,0.0966796875t-0.451171875,0.0751953125q-0.4296875,0.21484375-0.537109375,0.21484375q-0.171875,0-0.30078125-0.12890625q-0.0859375,0.0859375-0.2578125,0.0859375q-0.12890625,0-0.322265625-0.064453125t-0.30078125-0.064453125q-0.12890625,0-0.451171875-0.0859375t-0.34375-0.0859375q-0.150390625-0.021484375-0.3974609375,0.0537109375t-0.3330078125,0.0751953125q-0.193359375,0-0.279296875-0.0859375q-0.171875,0.0859375-0.4296875,0.0859375q-0.171875,0-0.21484375-0.04296875q-0.04296875,0.021484375-0.236328125,0.0966796875t-0.30078125,0.0751953125q-0.90234375,0-1.33203125-0.04296875q-0.2578125,0.0859375-0.4296875,0.0859375q-0.193359375,0-0.5693359375-0.064453125t-0.5693359375-0.064453125l-0.12890625-0.04296875l-0.0966796875-0.0322265625t-0.0537109375-0.0107421875l-0.171875,0.0859375l-0.0859375,0.04296875q-0.064453125,0-0.2041015625-0.0751953125t-0.1826171875-0.0966796875q-0.0859375,0.04296875-0.21484375,0.04296875q-0.0859375,0-0.279296875-0.064453125t-0.30078125-0.064453125l-0.0859375,0q-0.193359375,0.12890625-0.623046875,0.12890625q-0.47265625,0-0.880859375-0.150390625t-0.4296875-0.4296875q-0.4296875,0.21484375-0.537109375,0.21484375q-0.12890625,0-0.12890625-0.12890625l0-0.0859375q0.021484375-0.150390625,0.365234375-0.322265625t0.34375-0.30078125q-0.21484375,0.107421875-0.236328125,0.107421875q-0.12890625,0-0.12890625-0.236328125q0-0.21484375,0.12890625-0.6015625q0.236328125-0.9453125,0.236328125-1.03125q-0.38671875,0.193359375-0.451171875,0.193359375q-0.12890625-0.064453125-0.12890625-0.236328125q0-0.0859375,0.0859375-0.171875q0.04296875-0.04296875,0.1611328125-0.12890625t0.21484375-0.1611328125t0.1181640625-0.1396484375q0-0.408203125,0.1181640625-0.623046875t0.2900390625-0.2900390625t0.6015625-0.1826171875q0.30078125-0.150390625,0.47265625-0.150390625q0.193359375,0,0.193359375,0.236328125l0.04296875,0q0.04296875,0,0.3115234375-0.107421875t0.3330078125-0.0859375q0.171875,0,0.279296875,0.107421875q0.150390625-0.150390625,0.30078125-0.150390625l0.0859375,0q0.064453125,0,0.1826171875-0.021484375t0.2041015625-0.021484375q0.064453125,0,0.2578125-0.0859375t0.322265625-0.0859375t0.12890625,0.04296875q-0.0859375,0-0.0859375,0.04296875q0.04296875,0.04296875,0.21484375,0.04296875l0-0.171875q0-0.537109375,0.279296875-1.009765625q0.021484375-0.064453125,0.064453125-0.4189453125t0.064453125-0.5048828125q-0.021484375,0-0.1396484375,0.0859375t-0.236328125,0.150390625t-0.2041015625,0.064453125q-0.107421875,0-0.171875-0.12890625q-0.04296875-0.04296875-0.04296875-0.12890625t0.064453125-0.171875t0.1611328125-0.193359375t0.1181640625-0.150390625q0.04296875-0.021484375,0.107421875-0.0751953125t0.0966796875-0.0751953125t0.0859375-0.064453125t0.0751953125-0.064453125t0.0537109375-0.064453125t0.0537109375-0.0751953125t0.0322265625-0.0751953125l0.021484375-0.0859375t0.0107421875-0.0859375l0-0.12890625q-0.0859375-0.34375-0.0859375-0.880859375l0-0.279296875q0-0.04296875-0.021484375-0.193359375t-0.021484375-0.236328125q0-0.322265625,0.0859375-0.666015625q-0.0859375-0.2578125-0.0859375-0.6015625q0-0.0859375,0.021484375-0.2578125t0.021484375-0.193359375q-0.12890625-0.537109375-0.12890625-1.8046875q-0.04296875,0.04296875-0.193359375,0.04296875q-0.38671875,0-0.38671875-0.21484375q0-0.107421875,0.171875-0.21484375q0.365234375-0.150390625,0.365234375-0.408203125l0-0.2578125l0-0.171875q-0.0859375-0.4296875-0.0859375-0.708984375q0-0.236328125,0.12890625-1.267578125q0-1.396484375,0.0859375-4.232421875q0.04296875-0.537109375,0.04296875-1.58984375q0-1.095703125-0.04296875-1.67578125q-0.021484375-0.107421875-0.1181640625-0.38671875t-0.150390625-0.5048828125t-0.0537109375-0.3759765625q-0.064453125-0.171875-0.30078125-0.171875q-0.12890625,0-0.38671875,0.0859375l-0.236328125,0q-0.55859375,0-0.55859375-0.21484375q0-0.021484375,0.0859375-0.193359375q-0.107421875-0.021484375-0.38671875,0.0859375t-0.408203125,0.107421875t-0.236328125-0.04296875t-0.150390625-0.04296875q-0.107421875,0-0.193359375,0.04296875q-0.04296875,0.04296875-0.171875,0.04296875q-0.064453125,0-0.12890625-0.021484375t-0.1396484375-0.0537109375t-0.1181640625-0.0537109375q-0.0859375,0.0859375-0.322265625,0.0859375l-0.0859375,0q-0.515625-0.12890625-0.55859375-0.193359375q-0.279296875-0.21484375-0.279296875-1.568359375q0-0.794921875,0.04296875-0.966796875q-0.04296875,0.04296875-0.21484375,0.04296875q-0.2578125,0-0.2578125-0.171875q0-0.064453125,0.0859375-0.150390625q0.4296875-0.4296875,0.494140625-0.6015625q0-0.6875,0.4296875-0.966796875q0.193359375-0.12890625,0.5908203125-0.2041015625t0.5048828125-0.1181640625q0.0859375-0.04296875,0.236328125-0.04296875q0.171875,0,0.21484375,0.04296875q0.0859375-0.0859375,0.2578125-0.0859375l0.0859375,0q0.107421875,0,0.2470703125,0.021484375t0.2470703125,0.021484375q0.0859375,0,0.2578125,0.0859375l0.12890625,0q0.064453125,0,0.21484375,0.021484375t0.236328125,0.021484375l0.12890625,0q0.021484375,0,0.064453125-0.021484375t0.064453125-0.021484375q0.0859375,0,0.150390625,0.021484375t0.1396484375,0.0537109375t0.1396484375,0.0537109375q0.107421875,0,0.322265625-0.064453125t0.34375-0.064453125l0.12890625,0l0.12890625,0q0.150390625,0,0.322265625,0.0859375q0.171875-0.0859375,0.38671875-0.0859375l0.0859375,0l0.0859375,0q0.12890625,0,0.3759765625-0.064453125t0.3759765625-0.064453125q0.064453125,0,0.236328125,0.021484375t0.21484375,0.021484375l0.0859375,0q0.04296875,0,0.1396484375-0.021484375t0.1611328125-0.021484375l0.0859375,0q0.064453125,0,0.2255859375-0.021484375t0.2255859375-0.021484375q0.171875,0,0.2578125,0.04296875q0.04296875,0.04296875,0.21484375,0.04296875q0.0859375,0,0.322265625-0.04296875t0.34375-0.04296875l0.12890625,0q0.365234375,0,0.537109375,0.04296875q0.0859375-0.04296875,0.2578125-0.04296875q0.0859375,0,0.236328125,0.04296875t0.236328125,0.04296875q0.107421875,0.021484375,0.279296875,0.0751953125t0.2578125,0.0537109375l0.12890625,0q0.2578125-0.171875,0.794921875-0.171875l0.0859375,0q0.0859375,0.021484375,0.2255859375,0.0322265625t0.2255859375,0.0322265625t0.1826171875,0.0751953125t0.1611328125,0.1826171875q0.064453125,0.107421875,0.2255859375,0.171875t0.2041015625,0.171875q0.04296875,0.04296875,0.04296875,0.171875l0,0.171875l0,0.12890625q0.150390625,0.150390625,0.236328125,0.408203125q0.150390625,0.193359375,0.4189453125,0.6337890625t0.4189453125,0.6337890625q0.451171875,0.2578125,1.009765625,0.923828125q0.150390625,0.171875,0.2578125,0.451171875q0.0859375,0.0859375,0.171875,0.0859375q0.064453125,0,0.2041015625-0.04296875t0.2041015625-0.04296875l0.0859375,0q0.30078125,0.064453125,0.30078125,0.21484375q0,0.236328125-0.21484375,0.30078125q-0.04296875,0.04296875-0.1396484375,0.0966796875t-0.1611328125,0.0859375t-0.064453125,0.0966796875l0,0.0859375q0.0859375,0.193359375,0.3759765625,0.451171875t0.3759765625,0.38671875q0.408203125,0.34375,0.837890625,1.138671875q0.515625-0.2578125,0.580078125-0.2578125q0.12890625,0,0.12890625,0.171875l0,0.0859375q-0.021484375,0.193359375-0.2041015625,0.279296875t-0.1826171875,0.150390625q0,0.021484375,0.0859375,0.193359375q0.107421875,0.107421875,0.279296875,0.322265625t0.279296875,0.322265625q0.279296875,0.279296875,0.537109375,0.708984375q0.021484375,0,0.04296875,0.021484375t0.04296875,0.021484375q0.064453125,0,0.21484375-0.064453125t0.21484375-0.064453125q0.150390625,0,0.193359375,0.0859375q0.04296875,0.04296875,0.04296875,0.171875q0,0.0859375-0.0966796875,0.2685546875t-0.0966796875,0.2685546875l0,0.0859375q0.171875,0.150390625,0.38671875,0.537109375t0.322265625,0.515625l0.2578125-0.0859375q0.150390625,0,0.150390625,0.171875q0,0.064453125-0.021484375,0.21484375t-0.021484375,0.193359375l0,0.04296875q0.0859375,0.0859375,0.171875,0.2578125q0.04296875,0.04296875,0.171875,0.12890625t0.171875,0.12890625q0.04296875,0.064453125,0.0859375,0.2470703125t0.0859375,0.2470703125q0.21484375,0.322265625,0.236328125,0.38671875q0.04296875,0.04296875,0.12890625,0.04296875t0.3115234375-0.107421875t0.3330078125-0.107421875q0.171875,0,0.236328125,0.12890625q0.04296875,0.04296875,0.04296875,0.12890625q0,0.150390625-0.2470703125,0.34375t-0.2470703125,0.322265625t0.04296875,0.171875q0.021484375,0,0.171875,0.322265625q0.279296875-0.150390625,0.322265625-0.150390625q0.171875,0.0859375,0.171875,0.236328125q0,0.04296875-0.0859375,0.12890625q-0.0859375,0.04296875-0.0859375,0.171875q0,0.064453125,0.1181640625,0.2255859375t0.1396484375,0.2470703125q0.04296875,0.021484375,0.107421875,0.12890625l0.064453125,0.107421875q0.515625-0.171875,0.580078125-0.171875q0.193359375,0,0.30078125,0.171875q0.04296875,0.04296875,0.04296875,0.12890625q0,0.150390625-0.21484375,0.34375t-0.21484375,0.21484375q0.04296875,0.064453125,0.12890625,0.2041015625t0.12890625,0.2041015625q0.064453125,0.150390625,0.2685546875,0.408203125t0.2685546875,0.34375t0.236328125,0.30078125t0.279296875,0.38671875t0.171875,0.322265625q0.7734375,0.6875,1.2890625,1.439453125q0-0.171875-0.021484375-0.5263671875t-0.021484375-0.5263671875l-0.0859375,0q-0.12890625,0-0.2470703125-0.0859375t-0.1181640625-0.21484375q0-0.04296875,0.0859375-0.21484375l0.408203125-0.408203125l0-0.2578125l0-0.30078125l0-0.708984375q-0.021484375-0.150390625-0.04296875-0.193359375t-0.0859375-0.0751953125t-0.12890625-0.1396484375l-0.064453125-0.0859375q0-0.064453125,0.236328125-0.30078125q0-0.04296875-0.021484375-0.107421875t-0.021484375-0.107421875q-0.04296875-0.12890625-0.0537109375-0.4296875t-0.0322265625-0.365234375l0-0.34375q0-0.64453125,0.21484375-1.546875q0.0859375-0.515625,0.0859375-0.751953125q0-0.279296875-0.04296875-0.794921875t-0.04296875-0.751953125q-0.04296875,0.04296875-0.12890625,0.04296875q-0.279296875,0-0.279296875-0.2578125q0-0.12890625,0.04296875-0.171875q0.04296875-0.12890625,0.322265625-0.408203125l0-0.2578125q-0.04296875-0.12890625-0.04296875-0.47265625q0-0.6015625,0.0859375-1.203125q-0.47265625,0.30078125-0.580078125,0.279296875q-0.171875-0.064453125-0.171875-0.12890625q0-0.150390625,0.2578125-0.408203125q0.451171875-0.38671875,0.451171875-0.580078125q0-0.04296875-0.021484375-0.1396484375t-0.021484375-0.1611328125q-0.2578125-0.64453125-0.279296875-0.751953125q-0.171875-0.38671875-0.923828125-0.38671875l-0.64453125-0.12890625q-0.236328125,0-0.580078125-0.0859375q-0.193359375,0-0.623046875-0.0859375q-0.408203125,0.193359375-0.6875,0.2578125q-0.193359375,0-0.322265625-0.12890625q-0.21484375,0-0.34375,0.12890625l-0.12890625,0q-0.365234375,0-0.365234375-0.21484375l0-0.04296875q0.064453125-0.236328125,0.279296875-0.236328125l0.12890625,0q0.12890625,0,0.12890625-0.21484375l0-0.12890625q-0.04296875-0.0859375-0.04296875-0.2578125q0-0.279296875,0.04296875-0.408203125q-0.2578125,0.0859375-0.34375,0.0859375q-0.322265625,0-0.322265625-0.21484375q0-0.171875,0.21484375-0.38671875q0.38671875-0.38671875,0.408203125-0.451171875q0-0.064453125-0.021484375-0.21484375t-0.021484375-0.21484375q-0.0859375-0.34375-0.0859375-0.837890625q0-0.666015625,0.12890625-0.923828125q0.236328125-0.408203125,1.353515625-0.408203125l0.107421875,0q0.107421875,0,0.322265625-0.04296875t0.322265625-0.04296875l0.12890625,0q0.322265625,0,0.751953125-0.0859375q0.537109375,0,0.666015625,0.0859375q0.04296875-0.04296875,0.2578125-0.04296875q0.2578125,0,0.2578125,0.04296875q0.2578125-0.0859375,0.451171875-0.0859375q0.365234375,0,0.880859375,0.12890625q0.0859375-0.04296875,0.30078125-0.04296875q0.365234375,0,0.880859375,0.12890625q0.0859375-0.04296875,0.21484375-0.04296875q0.0859375,0,0.2470703125,0.04296875t0.2470703125,0.04296875q0.150390625,0,0.34375-0.12890625q0.04296875-0.04296875,0.150390625-0.04296875l0.21484375,0l0.12890625,0q0.04296875-0.04296875,0.12890625-0.04296875l0.0859375,0l0.12890625,0q0.150390625,0,0.4404296875-0.0859375t0.4404296875-0.0859375l0.12890625,0q0.2578125,0.0859375,0.322265625,0.2578125q0.34375-0.171875,0.515625-0.171875l0.04296875,0q0.021484375,0,0.2255859375,0.107421875t0.2255859375,0.107421875q0.0859375,0.04296875,0.30078125,0.04296875q0.12890625,0,0.4189453125-0.04296875t0.4189453125-0.04296875q0.666015625,0,0.794921875,0.12890625q0.0859375-0.021484375,0.2041015625-0.0966796875t0.1826171875-0.0751953125l0.0859375,0q0.322265625,0.0859375,0.4619140625,0.1396484375t0.2578125,0.2255859375t0.1181640625,0.47265625q0.021484375,0.21484375,0.107421875,0.9775390625t0.0859375,1.1708984375q0,0.0859375-0.021484375,0.2470703125t-0.021484375,0.2470703125z M210.115234375,121.60546875l-0.04296875,0l0.04296875,0q-0.12890625,0.064453125-0.3115234375,0.0751953125t-0.2900390625,0.0966796875q-0.537109375,0.4296875-0.623046875,0.515625q-1.568359375,1.2890625-2.01953125,1.67578125l-3.029296875,2.513671875q1.9765625-1.181640625,3.587890625-2.0625q0.408203125-0.236328125,1.1923828125-0.708984375t1.1923828125-0.708984375q0.064453125-0.021484375,0.3115234375-0.193359375t0.4833984375-0.30078125t0.34375-0.0859375l0-0.34375q0-0.2578125-0.04296875-0.38671875l-0.0859375,0q-0.0859375,0-0.30078125-0.04296875t-0.30078125-0.04296875l-0.107421875,0z M201.28515625,124.505859375l0.04296875,0l-0.04296875,0q0.021484375,0,0.0751953125-0.021484375t0.0966796875-0.021484375l-0.04296875-0.04296875q-0.04296875,0-0.12890625,0.0859375z M202.166015625,124.677734375q0.0859375,0.04296875,0.171875,0.04296875l0.04296875,0q-0.04296875,0-0.107421875-0.021484375t-0.107421875-0.021484375z M202.638671875,125.021484375l0.365234375-0.2578125q-0.236328125,0.12890625-0.365234375,0.2578125q2.857421875-2.0625,5.02734375-3.287109375l-0.171875,0q-0.150390625,0-0.365234375,0.0859375q-0.2578125,0.193359375-0.47265625,0.30078125q-1.525390625,1.095703125-1.58984375,1.138671875q-0.21484375,0.150390625-0.7841796875,0.515625t-0.9453125,0.64453125t-0.6982421875,0.6015625z M202.724609375,121.498046875l0.04296875,0l-0.04296875,0l-0.30078125,0q-0.193359375,0-0.4296875,0.236328125t-0.708984375,0.64453125t-0.537109375,0.451171875q0.2578125-0.12890625,0.8056640625-0.38671875t0.966796875-0.4833984375t0.7841796875-0.4619140625l-0.38671875,0l-0.193359375,0z M199.99609375,121.498046875l0.04296875,0.04296875q0-0.04296875-0.04296875-0.04296875q-0.30078125,0.21484375-0.880859375,0.794921875q-0.0859375,0.0859375-0.12890625,0.1396484375t-0.0859375,0.1181640625t-0.0537109375,0.0859375t-0.0322265625,0.0859375t-0.0322265625,0.0859375t-0.0322265625,0.12890625t-0.021484375,0.150390625q1.525390625-0.90234375,2.470703125-1.58984375q-0.0859375-0.04296875-0.236328125-0.04296875q-0.107421875,0-0.34375,0.0751953125t-0.34375,0.0751953125q-0.064453125,0-0.279296875-0.107421875z M198.685546875,122.12109375l0.0859375-0.04296875q0.0859375-0.04296875,0.0859375-0.12890625q0-0.04296875-0.0859375-0.12890625q-0.0859375,0.04296875-0.0859375,0.171875l0,0.12890625z M200.146484375,122.744140625l-0.236328125,0.12890625q0-0.021484375,0.0966796875-0.0751953125t0.1396484375-0.0537109375q-0.064453125,0.04296875-0.494140625,0.2578125t-0.666015625,0.4296875t-0.21484375,0.451171875q0.2578125-0.150390625,0.515625-0.3544921875t0.6123046875-0.537109375t0.4619140625-0.4189453125q-0.021484375,0.021484375-0.0966796875,0.0751953125t-0.1181640625,0.0966796875z M203.08984375,126.482421875q0.021484375,0.064453125,0.38671875-0.236328125t0.494140625-0.4296875q1.4609375-1.203125,2.0625-1.71875q0.623046875-0.494140625,1.783203125-1.4716796875t1.2890625-1.0849609375q-0.322265625-0.150390625-1.353515625,0.623046875q-1.267578125,0.708984375-2.599609375,1.6328125q-0.4296875,0.2578125-1.546875,1.052734375q-0.04296875,0.04296875-0.2685546875,0.193359375l-0.4189453125,0.279296875t-0.193359375,0.193359375q0.150390625,0.236328125,0.365234375,0.966796875z M209.513671875,123.7109375q-1.525390625,0.859375-4.017578125,2.27734375q-0.4296875,0.236328125-1.203125,0.6982421875t-0.859375,0.5048828125q-0.2578125,0.150390625-0.2578125,0.6015625q0,0.171875,0.04296875,0.537109375t0.04296875,0.47265625l0,0.150390625q0.107421875-0.0859375,3.91015625-3.265625l0-0.0859375q0-0.322265625,0.2578125-0.6337890625t0.623046875-0.3759765625q0.107421875-0.0859375,0.365234375-0.150390625t0.38671875-0.171875q0.150390625-0.12890625,0.3974609375-0.322265625t0.3115234375-0.236328125z M203.26171875,137.740234375q0-0.107421875,1.267578125-0.751953125q-0.04296875,0.021484375-0.2900390625,0.12890625t-0.4189453125,0.193359375t-0.3544921875,0.21484375t-0.2041015625,0.21484375z M203.21875,136.47265625l0.21484375-0.236328125l-0.21484375,0.236328125q0.6875-0.6875,2.19140625-2.01953125q-0.30078125,0.171875-0.8701171875,0.5048828125t-0.8486328125,0.5048828125q-0.451171875,0.2578125-0.494140625,0.38671875q-0.021484375,0.064453125-0.021484375,0.171875q0,0.236328125,0.04296875,0.451171875z M203.841796875,134.8828125q0.34375-0.193359375,0.9990234375-0.5693359375t0.9775390625-0.5693359375q0.34375-0.236328125,0.880859375-0.537109375q0.04296875,0,0.04296875-0.21484375q0-0.107421875-0.0107421875-0.2900390625t-0.021484375-0.3115234375t-0.0107421875-0.150390625q-0.923828125,0.880859375-2.857421875,2.642578125z M203.34765625,132.8203125q0.55859375-0.537109375,1.6435546875-1.6435546875t1.6220703125-1.6650390625q-0.537109375,0.34375-1.482421875,1.0634765625t-1.353515625,0.9990234375q-0.30078125,0.21484375-0.4296875,0.236328125q-0.0859375,0.04296875-0.0859375,0.12890625q0,0.021484375,0.021484375,0.0966796875t0.021484375,0.1181640625q0.04296875,0.0859375,0.04296875,0.30078125l0,0.365234375z M203.21875,129.59765625q1.138671875-0.6875,1.353515625-0.794921875q0.12890625-0.0859375,0.4189453125-0.236328125t0.4189453125-0.236328125q0.0859375-0.04296875,0.4189453125-0.30078125t0.6123046875-0.4189453125t0.47265625-0.1611328125l0-0.04296875q-1.912109375,1.03125-2.427734375,1.353515625q-0.021484375,0-0.365234375,0.193359375t-0.623046875,0.3759765625t-0.279296875,0.2685546875z M206.9140625,126.568359375q0-0.021484375,0.021484375-0.064453125t0.021484375-0.064453125q-0.537109375,0.408203125-0.580078125,0.4296875q0.107421875-0.04296875,0.2470703125-0.0751953125t0.1826171875-0.064453125t0.107421875-0.1611328125z M206.376953125,128.544921875l-0.12890625,0.12890625q0.12890625-0.0859375,0.12890625-0.12890625q-0.38671875,0.38671875-2.3203125,2.341796875q0.279296875-0.193359375,0.7626953125-0.5908203125t0.8916015625-0.6982421875t0.794921875-0.515625q0.2578125-0.150390625,0.3330078125-0.34375t0.1181640625-0.623046875q-0.0859375,0.0859375-0.2900390625,0.21484375t-0.2900390625,0.21484375z M206.69921875,130.048828125l-1.76171875,1.76171875q1.33203125-0.859375,1.568359375-0.966796875q0.236328125-0.12890625,0.236328125-0.408203125q0-0.04296875-0.021484375-0.1826171875t-0.021484375-0.2041015625z M203.26171875,130.091796875l0.12890625-0.04296875q-0.04296875,0-0.12890625,0.04296875q-0.0859375,0.0859375-0.0859375,0.21484375q0,0.0859375,0.04296875,0.3330078125t0.04296875,0.3330078125l0,0.0859375q1.224609375-1.224609375,1.84765625-1.8046875q-0.322265625,0.12890625-0.9345703125,0.4189453125t-0.9130859375,0.4189453125z M203.046875,135.01171875q0-0.0859375,0.5048828125-0.515625t0.7626953125-0.623046875q0.171875-0.150390625,1.138671875-1.009765625q0.107421875-0.107421875,0.3974609375-0.365234375t0.4619140625-0.4189453125t0.322265625-0.4189453125t0.150390625-0.515625q-1.24609375,0.6875-2.771484375,1.84765625q-0.73046875,0.4296875-0.923828125,0.751953125l-0.04296875,0.322265625l0,0.021484375l0,0.623046875l0,0.30078125z M205.646484375,136.7734375l-0.451171875,0.2578125l0.494140625-0.30078125l-0.04296875,0.04296875q-1.07421875,0.708984375-1.76171875,1.095703125q-0.064453125,0.04296875-0.193359375,0.1181640625t-0.2041015625,0.12890625t-0.1611328125,0.1396484375t-0.107421875,0.193359375l0,0.751953125l0,0.38671875q0.04296875,0.12890625,0.04296875,0.580078125q0,0.38671875-0.0859375,0.515625q0.04296875-0.04296875,0.1826171875-0.1181640625t0.2255859375-0.150390625t0.064453125-0.1611328125l0-0.04296875q0-0.171875,0.322265625-0.494140625q1.03125-1.03125,1.568359375-1.525390625q-0.064453125,0.04296875-0.3974609375,0.2685546875t-0.494140625,0.3115234375t-0.4296875,0.21484375t-0.4833984375,0.171875q-0.021484375,0-0.064453125,0.021484375t-0.064453125,0.021484375q-0.12890625,0-0.236328125-0.0966796875t-0.107421875-0.2255859375l0-0.12890625q0.064453125-0.193359375,0.2255859375-0.365234375t0.451171875-0.38671875t0.3330078125-0.2578125q0.0859375-0.064453125,1.0205078125-0.6767578125t1.4072265625-0.9560546875q-0.171875,0.107421875-0.5263671875,0.3330078125t-0.5263671875,0.3330078125z M197.052734375,145.302734375l0.12890625-0.0859375l-0.12890625,0.0859375q0.794921875-0.580078125,1.6650390625-1.138671875t2.10546875-1.3212890625t1.6865234375-1.0419921875q-0.236328125-0.064453125-0.515625-0.623046875q-0.90234375,0.859375-3.1796875,2.513671875q-0.794921875,0.580078125-1.546875,1.224609375q-0.021484375,0.021484375-0.107421875,0.064453125t-0.1181640625,0.0751953125t-0.0751953125,0.0859375t-0.04296875,0.1181640625l0,0.04296875q0.021484375,0,0.04296875,0.021484375t0.04296875,0.021484375z M203.17578125,141.220703125q0,0.021484375-0.021484375,0.0859375t-0.021484375,0.0859375q0.21484375-0.107421875,0.451171875-0.2578125t0.5263671875-0.3330078125t0.4619140625-0.2900390625q-0.193359375,0.0859375-0.794921875,0.38671875t-0.6015625,0.322265625z M206.78515625,137.525390625l0,0.04296875l0-0.04296875q-0.55859375,0.580078125-2.341796875,2.27734375q0.322265625-0.171875,0.6552734375-0.3974609375t0.73046875-0.494140625t0.6337890625-0.4189453125q0.322265625-0.2578125,0.322265625-0.708984375l0-0.2578125z M206.87109375,136.515625q0,0.12890625-1.67578125,1.138671875q-0.7734375,0.47265625-1.41796875,1.052734375q0.6015625-0.2578125,1.71875-1.052734375q0.0859375-0.064453125,0.3115234375-0.1826171875t0.3544921875-0.2041015625t0.2900390625-0.2041015625t0.2685546875-0.2578125t0.150390625-0.2900390625z M201.005859375,139.888671875l-0.38671875-0.38671875q-0.2578125,0.21484375-0.7841796875,0.6552734375t-0.8056640625,0.6552734375q-0.515625,0.47265625-1.568359375,1.396484375t-1.58984375,1.396484375l0,0.04296875q0.515625-0.322265625,1.67578125-1.0849609375t2.0517578125-1.310546875t1.7294921875-0.9990234375q-0.2578125-0.171875-0.322265625-0.365234375z M199.99609375,138.6640625q-0.171875-0.171875-0.34375-0.515625q-0.623046875,0.55859375-1.890625,1.7080078125t-1.890625,1.7080078125q0.21484375-0.12890625,1.0205078125-0.64453125t1.181640625-0.7412109375t1.0205078125-0.5693359375t1.181640625-0.580078125q-0.021484375-0.04296875-0.1396484375-0.171875t-0.1396484375-0.193359375z M198.728515625,136.859375l-0.12890625,0.0859375q0.12890625,0,0.12890625-0.0859375q-0.38671875,0.322265625-1.396484375,1.1064453125t-1.7080078125,1.396484375t-1.2568359375,1.2783203125q1.6328125-0.966796875,4.984375-2.900390625q-0.12890625-0.150390625-0.3544921875-0.494140625t-0.2685546875-0.38671875z M197.76171875,135.419921875q-0.193359375-0.193359375-1.71875,1.095703125q1.224609375-0.73046875,1.8046875-0.966796875q-0.021484375-0.021484375-0.04296875-0.064453125t-0.04296875-0.064453125z M192.43359375,138.62109375l0.21484375-0.171875l-0.193359375,0.171875l-0.021484375,0q1.203125-0.90234375,2.212890625-1.6328125q-0.4296875,0.236328125-1.24609375,0.6982421875t-1.224609375,0.7197265625q0.021484375,0.021484375,0.064453125,0.0859375t0.0751953125,0.0966796875t0.0751953125,0.0322265625l0.04296875,0z M195.333984375,137.912109375q-0.537109375,0.34375-1.310546875,0.923828125q0.9453125-0.623046875,1.310546875-0.923828125z M191.638671875,137.697265625l0.880859375-0.580078125l-0.880859375,0.580078125q2.96484375-1.869140625,5.28515625-3.5234375l0-0.04296875q-2.19140625,1.203125-5.45703125,3.30859375q0.171875,0.21484375,0.171875,0.2578125z M191.037109375,136.98828125l0.04296875,0q0.064453125,0,0.193359375-0.107421875t0.2685546875-0.2470703125t0.1826171875-0.1611328125q1.052734375-0.837890625,1.6328125-1.375q0.150390625-0.12890625,1.052734375-0.8701171875t1.375-1.1494140625q-0.64453125,0.408203125-1.7939453125,1.224609375t-1.4287109375,1.009765625q-0.150390625,0.107421875-0.4619140625,0.3330078125t-0.494140625,0.34375t-0.451171875,0.279296875t-0.5263671875,0.2470703125q0.021484375,0.0859375,0.193359375,0.236328125t0.21484375,0.236328125z M189.705078125,134.8828125q0.04296875,0.04296875,1.1064453125-0.7412109375t2.1591796875-1.6650390625t1.224609375-1.07421875q-0.12890625-0.021484375-0.322265625,0.0859375t-0.4404296875,0.30078125t-0.2900390625,0.236328125q-1.07421875,0.751953125-1.50390625,1.009765625q-1.654296875,1.07421875-2.234375,1.41796875q0.021484375,0.021484375,0.1396484375,0.171875t0.1611328125,0.2578125z M190.328125,135.849609375q0.021484375,0.0859375,0.7197265625-0.4189453125t1.0849609375-0.8056640625q0.322265625-0.279296875,0.9990234375-0.7841796875t1.0205078125-0.7626953125q-1.58984375,0.98828125-3.22265625,1.93359375l-0.81640625,0.408203125z M195.65625,132.412109375l-0.236328125,0.193359375q0.021484375,0.021484375,0.236328125-0.193359375q-0.193359375,0.171875-2.87890625,2.255859375q2.685546875-1.890625,3.09375-2.126953125q-0.021484375-0.04296875-0.064453125-0.107421875t-0.064453125-0.107421875z M197.181640625,134.5390625l-0.04296875-0.04296875q-0.064453125,0-0.12890625,0.12890625z M196.880859375,135.18359375q0.408203125-0.193359375,0.537109375-0.30078125q-0.12890625,0.107421875-0.537109375,0.30078125z M194.109375,135.26953125l0.4296875-0.2578125l-0.47265625,0.30078125l0.04296875-0.04296875q0.837890625-0.537109375,2.599609375-1.525390625q-0.107421875-0.107421875-0.21484375-0.3115234375t-0.150390625-0.2685546875q-2.19140625,1.84765625-3.244140625,2.728515625q0.171875-0.12890625,0.55859375-0.3544921875t0.451171875-0.2685546875z M190.88671875,134.5390625l0.537109375-0.322265625q-0.408203125,0.236328125-0.537109375,0.322265625q0.794921875-0.4296875,2.384765625-1.41796875q0.279296875-0.150390625,0.7841796875-0.4833984375t0.6337890625-0.3974609375q0.064453125-0.04296875,0.171875-0.0966796875t0.1826171875-0.0966796875t0.150390625-0.0966796875t0.0966796875-0.12890625t0-0.1611328125q-0.107421875-0.12890625-0.279296875-0.408203125t-0.279296875-0.408203125q-0.12890625,0.064453125-0.279296875,0.21484375q0.12890625,0.064453125,0.12890625,0.2578125q0,0.751953125-3.6953125,3.22265625z M193.658203125,129.42578125q0.021484375,0-0.0859375,0.107421875t-0.3115234375,0.2578125t-0.4404296875,0.3330078125t-0.5048828125,0.38671875t-0.4619140625,0.3544921875t-0.365234375,0.279296875t-0.193359375,0.12890625q-0.30078125,0.193359375-0.9130859375,0.5478515625t-1.0849609375,0.6875t-0.81640625,0.6982421875q0,0.04296875,0.04296875,0.04296875q2.96484375-1.826171875,5.5859375-3.287109375q-0.451171875-0.451171875-0.451171875-0.537109375z M192.927734375,128.501953125q0,0.021484375-1.052734375,0.8701171875t-2.19140625,1.8154296875t-1.33203125,1.224609375q0.236328125-0.021484375,0.451171875-0.12890625t0.515625-0.3544921875t0.38671875-0.3115234375q0.279296875-0.193359375,0.8701171875-0.6123046875t0.8916015625-0.6123046875q0.2578125-0.150390625,0.7412109375-0.4619140625t0.7197265625-0.4619140625l0.236328125-0.12890625q0.2578125-0.150390625,0.365234375-0.12890625q-0.34375-0.279296875-0.6015625-0.708984375z M192.4765625,127.75q-0.193359375-0.2578125-0.30078125-0.47265625q-0.107421875-0.171875-0.21484375-0.171875t-0.193359375,0.0859375q-0.107421875,0.107421875-0.34375,0.322265625t-0.34375,0.322265625q-1.310546875,1.095703125-3.09375,2.728515625q0.7734375-0.451171875,2.2880859375-1.33203125t2.2880859375-1.310546875q-0.0859375-0.0859375-0.0859375-0.171875z M191.595703125,126.697265625l-0.04296875,0q-0.04296875,0-0.0859375,0.04296875l0.12890625,0l0-0.04296875z M190.9296875,125.859375q-0.0859375-0.150390625-3.9853515625,2.234375t-4.7158203125,3.0078125q0.150390625-0.0859375,0.537109375-0.34375t0.6767578125-0.4189453125t0.5908203125-0.2470703125q0.021484375,0,0.0751953125-0.021484375t0.0966796875-0.021484375q0.365234375,0,0.365234375,0.2578125q0,0.107421875-0.150390625,0.2578125q0.2578125-0.150390625,0.322265625-0.193359375t0.0751953125-0.236328125t0.0537109375-0.322265625q0.04296875-0.171875,0.193359375-0.30078125t0.322265625-0.12890625q0.107421875,0,0.150390625,0.04296875q0.12890625,0.04296875,0.171875,0.12890625t0.0859375,0.0859375t0.21484375-0.0859375q0.21484375-0.0859375,0.880859375-0.47265625q0.7734375-0.47265625,2.169921875-1.482421875t2.0625-1.439453125q-0.0859375-0.0859375-0.193359375-0.30078125z M184.828125,133.744140625q0.12890625-0.0859375,0.12890625-0.580078125q0-0.537109375-0.04296875-0.666015625q-0.279296875,0.365234375-0.666015625,0.7734375t-0.623046875,0.6337890625t-0.7626953125,0.73046875t-0.6767578125,0.6337890625q0.4296875-0.2578125,1.310546875-0.7626953125t1.33203125-0.7626953125z M187.728515625,121.77734375q-0.708984375,0.38671875-1.41796875,0.81640625t-1.783203125,1.138671875t-1.375,0.90234375q-1.16015625,0.794921875-1.890625,1.224609375q-0.21484375,0.107421875-0.21484375,0.30078125q0,0.064453125,0.0537109375,0.2578125t0.0751953125,0.322265625q0.021484375-0.12890625,0.21484375-0.30078125t0.4833984375-0.34375t0.3115234375-0.193359375q0.365234375-0.30078125,1.1064453125-0.8486328125t1.1279296875-0.8271484375q0.55859375-0.408203125,1.6650390625-1.2138671875t1.6435546875-1.2353515625z M189.533203125,124.01171875l-0.21484375,0.0859375l0.21484375-0.0859375q-0.6015625,0.2578125-1.2998046875,0.623046875t-1.181640625,0.666015625t-1.267578125,0.794921875t-1.1708984375,0.73046875q-0.38671875,0.2578125-1.07421875,0.6982421875t-1.2353515625,0.8056640625t-1.0419921875,0.708984375q-0.0859375,0.171875-0.0859375,0.6875q0,0.21484375,0.021484375,0.64453125t0.021484375,0.6015625q4.08203125-2.900390625,6.123046875-4.533203125q0.171875-0.150390625,0.580078125-0.4833984375t0.708984375-0.6015625t0.55859375-0.5478515625q0.47265625-0.47265625,0.47265625-0.580078125q0-0.0859375-0.12890625-0.21484375z M184.87109375,131.23046875q-0.34375,0.236328125-0.9775390625,0.751953125t-0.9560546875,0.751953125q0.0859375-0.04296875,1.267578125-0.751953125q0.0859375-0.04296875,0.2470703125-0.1181640625t0.2041015625-0.107421875t0.1181640625-0.107421875t0.0859375-0.171875t0.0107421875-0.2470703125z M181.17578125,133.572265625q0.515625-0.38671875,1.525390625-1.1708984375t1.50390625-1.1708984375q-0.322265625,0.171875-1.890625,1.138671875q-0.34375,0.193359375-0.880859375,0.580078125q-0.21484375,0.12890625-0.21484375,0.34375q0,0.193359375-0.04296875,0.279296875z M182.357421875,131.57421875q0.73046875-0.451171875,1.138671875-0.7734375q-0.580078125,0.365234375-1.396484375,0.923828125q-0.04296875,0.04296875-0.30078125,0.1826171875t-0.4404296875,0.2578125t-0.1826171875,0.2041015625q0.193359375-0.12890625,0.5908203125-0.3974609375t0.5908203125-0.3974609375z M181.3046875,128.373046875q1.07421875-0.90234375,6.552734375-5.4140625q-0.47265625,0.21484375-0.9560546875,0.4833984375t-1.0205078125,0.6123046875t-0.880859375,0.580078125t-0.966796875,0.6875t-0.880859375,0.623046875q-0.171875,0.171875-0.8056640625,0.5908203125t-0.9560546875,0.4189453125q-0.150390625,0-0.21484375-0.12890625q0,1.1171875,0.12890625,1.546875z M181.046875,135.763671875l0.04296875-0.04296875l-0.04296875,0.04296875q0.279296875-0.2578125,1.1064453125-1.03125t1.3642578125-1.310546875t0.98828125-1.095703125q-0.451171875,0.2578125-1.2890625,0.7626953125t-1.2890625,0.7412109375q-0.751953125,0.365234375-0.751953125,0.47265625l0,0.193359375q0,0.150390625-0.064453125,0.515625t-0.064453125,0.537109375l0,0.21484375z M190.5,124.849609375q-0.0859375-0.04296875-0.4296875-0.38671875q-0.236328125,0.322265625-0.5693359375,0.666015625t-0.5693359375,0.5478515625t-0.708984375,0.5908203125t-0.623046875,0.515625q1.76171875-1.07421875,2.1484375-1.267578125q0.064453125-0.021484375,0.2255859375-0.0966796875t0.2685546875-0.12890625t0.2041015625-0.1396484375t0.0966796875-0.171875t-0.04296875-0.12890625z M189.0390625,123.259765625q-0.0859375-0.0859375-0.34375-0.47265625q-0.107421875,0.150390625-0.3974609375,0.3759765625t-0.3544921875,0.2900390625q-0.666015625,0.494140625-1.67578125,1.353515625q-0.408203125,0.34375-1.2353515625,1.0205078125t-1.2568359375,1.0419921875q3.845703125-2.4921875,5.5-3.201171875q-0.021484375-0.064453125-0.1181640625-0.2041015625t-0.1181640625-0.2041015625z M188.22265625,121.94921875q-1.375,1.009765625-1.546875,1.138671875q0.0859375-0.04296875,0.451171875-0.2578125t0.6552734375-0.3330078125t0.5263671875-0.1181640625l0.171875,0q-0.171875-0.2578125-0.2578125-0.4296875z M186.6328125,121.69140625q-0.236328125,0-0.666015625-0.0859375q-0.81640625,0.47265625-0.923828125,0.55859375q-1.396484375,1.03125-1.9765625,1.50390625q-0.2578125,0.193359375-0.73046875,0.5908203125t-0.73046875,0.5908203125q-0.021484375,0.021484375-0.2470703125,0.2041015625t-0.3759765625,0.34375t-0.12890625,0.2470703125q0.73046875-0.451171875,2.8251953125-1.8369140625t3.2548828125-2.0732421875q-0.04296875,0-0.150390625-0.021484375t-0.150390625-0.021484375z M176.384765625,123.96875q0.279296875-0.408203125,0.7626953125-1.181640625t0.7626953125-1.181640625q-0.12890625,0.064453125-0.537109375,0.3115234375t-0.64453125,0.3759765625t-0.279296875,0.1826171875t-0.107421875,0.2685546875q0.04296875,0.12890625,0.04296875,0.6015625l0,0.623046875z M178.962890625,121.734375l0.04296875,0l-0.04296875,0q-0.064453125,0-0.2255859375-0.064453125t-0.2470703125-0.064453125q-0.04296875,0-0.12890625,0.0859375q-0.0859375,0.150390625-0.279296875,0.4189453125t-0.21484375,0.3115234375q-0.55859375,0.794921875-0.880859375,1.41796875l1.740234375-1.03125l1.740234375-1.03125q-0.04296875,0-0.1396484375,0.021484375t-0.1611328125,0.021484375q-0.04296875,0-0.1611328125-0.021484375t-0.1611328125-0.021484375t-0.21484375,0.021484375t-0.30078125,0.021484375q-0.193359375,0-0.365234375-0.0859375z M182.056640625,123.92578125l-0.451171875,0.30078125q0.150390625-0.0859375,0.451171875-0.30078125q-0.171875,0.107421875-0.5263671875,0.3544921875t-0.5263671875,0.3544921875q-0.04296875,0.021484375-0.107421875,0.064453125t-0.0859375,0.064453125t-0.0537109375,0.04296875t-0.04296875,0.04296875t-0.021484375,0.0537109375t-0.0107421875,0.0751953125l0,0.12890625q0.408203125-0.408203125,1.375-1.181640625z M181.046875,136.47265625l0,0.0859375q1.955078125-1.1171875,2.900390625-1.8046875q-0.279296875,0.150390625-0.794921875,0.4404296875t-0.794921875,0.4404296875q-0.064453125,0.064453125-0.408203125,0.2255859375t-0.6123046875,0.3330078125t-0.2900390625,0.279296875z M183.1953125,135.978515625q-1.71875,1.07421875-1.84765625,1.138671875q-0.2578125,0.107421875-0.2578125,0.322265625q0,0.021484375,0.021484375,0.12890625t0.021484375,0.171875q0.837890625-0.6875,2.0625-1.76171875z M181.3046875,142.4453125l0.171875-0.0859375q-0.171875,0-0.171875,0.0859375q0.708984375-0.408203125,2.943359375-1.84765625q0.150390625-0.12890625,0.666015625-0.4296875l0-0.451171875q-0.04296875-0.171875-0.04296875-0.515625l0-0.537109375q-0.30078125,0.322265625-0.9130859375,0.9560546875t-0.9345703125,0.9775390625q-0.021484375,0.021484375-0.2470703125,0.2255859375t-0.4619140625,0.4296875t-0.4833984375,0.47265625t-0.3974609375,0.451171875t-0.12890625,0.2685546875z M181.26171875,140.46875l0.0859375-0.04296875q-0.04296875,0-0.0859375,0.04296875l0,0.12890625q0.451171875-0.171875,0.8916015625-0.4404296875t1.0849609375-0.7626953125t0.794921875-0.6015625q-0.30078125,0.193359375-1.310546875,0.7412109375t-1.4609375,0.9345703125z M184.87109375,138.234375l-0.0859375,0.0859375q0.0859375,0,0.0859375,0.04296875q0.04296875-0.04296875,0.04296875-0.0859375t-0.04296875-0.04296875z M184.9140625,136.34375l-0.171875,0.171875q0.171875-0.12890625,0.171875-0.171875q-0.21484375,0.193359375-0.81640625,0.7197265625t-1.009765625,0.9130859375t-0.7734375,0.7734375q-0.666015625,0.580078125-0.923828125,1.095703125q0.193359375-0.0859375,0.515625-0.3330078125t0.451171875-0.3115234375q0.98828125-0.623046875,1.6328125-0.966796875q0.2578125-0.193359375,0.751953125-0.451171875l0.171875-0.12890625l0-0.12890625l0-0.0859375l0-0.21484375l0-0.580078125l0-0.30078125z M181.21875,139.330078125l0.12890625-0.171875q-0.0859375,0.12890625-0.12890625,0.171875q0.12890625-0.193359375,0.322265625-0.4189453125t0.3330078125-0.365234375t0.38671875-0.3759765625t0.3544921875-0.34375q-1.009765625,0.6015625-1.439453125,0.708984375q0.04296875,0.171875,0.04296875,0.580078125l0,0.21484375z M181.26171875,141.736328125q0,0.021484375,0.3330078125-0.2900390625t0.5048828125-0.4833984375q0.537109375-0.537109375,0.794921875-0.837890625q-0.859375,0.6015625-1.33203125,0.837890625q-0.2578125,0.107421875-0.2578125,0.30078125l0,0.171875q0,0.171875-0.04296875,0.30078125z M181.26171875,144.12109375l0,0.12890625q0.837890625-0.6015625,2.234375-1.67578125q0.064453125-0.04296875,0.34375-0.2255859375t0.4833984375-0.322265625t0.3974609375-0.322265625t0.193359375-0.3115234375q-1.76171875,1.009765625-2.298828125,1.267578125q-0.47265625,0.322265625-1.181640625,0.708984375q-0.12890625,0.064453125-0.12890625,0.365234375l0,0.171875q0,0.12890625-0.04296875,0.21484375z M179.84375,150.115234375l0.0859375-0.04296875l-0.0859375,0.04296875q0.751953125-0.365234375,1.4716796875-0.81640625t1.7939453125-1.24609375t1.353515625-0.98828125q0.021484375,0,0.1826171875-0.0751953125t0.236328125-0.1181640625t0.193359375-0.12890625t0.171875-0.171875t0.0537109375-0.193359375t-0.04296875-0.150390625q-0.193359375-0.322265625-0.30078125-0.966796875q-0.451171875,0.38671875-1.33203125,1.1494140625t-1.4287109375,1.2353515625t-1.267578125,1.16015625t-1.2998046875,1.310546875l0.0859375,0l0.12890625,0z M184.95703125,142.015625q0,0.0859375-0.73046875,0.6123046875t-0.90234375,0.6123046875q0.150390625-0.0859375,0.4619140625-0.2578125t0.4619140625-0.2578125q0.021484375,0,0.150390625-0.0966796875t0.171875-0.0966796875l0.0859375-0.04296875q0.21484375,0,0.21484375,0.236328125q0,0.0859375-0.0859375,0.171875q-0.171875,0.12890625-1.5361328125,1.1171875t-2.0302734375,1.525390625q0.537109375-0.2578125,1.93359375-1.203125q1.16015625-0.9453125,1.4609375-1.052734375q0.021484375,0,0.04296875-0.021484375t0.04296875-0.021484375q0.21484375,0,0.21484375,0.21484375l0,0.04296875q-0.04296875,0.12890625-0.666015625,0.537109375q-0.322265625,0.21484375-0.9345703125,0.6552734375t-0.9130859375,0.6552734375q1.50390625-1.009765625,1.9765625-1.009765625q0.21484375,0,0.279296875,0.12890625q0.12890625-0.04296875,0.2041015625-0.193359375t0.0966796875-0.279296875t0.0322265625-0.3759765625t0.0107421875-0.3330078125q-0.0859375-0.34375-0.0859375-0.751953125q0-0.12890625,0.021484375-0.30078125t0.021484375-0.21484375z M181.3046875,144.916015625q-0.021484375,0.021484375-0.064453125,0.04296875t-0.064453125,0.04296875q0.021484375-0.021484375,0.064453125-0.04296875t0.064453125-0.04296875z M180.853515625,146.2265625l0.107421875-0.04296875l-0.107421875,0.04296875q0.279296875-0.150390625,0.494140625-0.30078125q-0.021484375,0-0.1611328125,0.04296875t-0.236328125,0.0966796875t-0.0966796875,0.1181640625l0,0.04296875z M184.505859375,143.60546875q0.021484375,0.021484375,0.0537109375,0.04296875t0.0537109375,0.04296875q-0.021484375-0.021484375-0.0537109375-0.04296875t-0.0537109375-0.04296875z M177.73828125,147.64453125l0.04296875,0l-0.04296875,0q-0.708984375,0-0.966796875,0.21484375q-0.171875,0.107421875-0.171875,0.408203125q0,0.064453125,0.021484375,0.2470703125t0.021484375,0.2685546875q0.322265625-0.193359375,0.923828125-0.5693359375t0.923828125-0.5693359375q-0.064453125,0-0.1826171875,0.021484375t-0.1611328125,0.021484375q-0.064453125,0-0.2041015625-0.021484375t-0.2041015625-0.021484375z M178.791015625,149.96484375l-0.04296875,0l0.04296875,0q0.064453125,0,0.150390625,0.0322265625t0.12890625,0.0322265625l0.0859375,0q0.34375-0.34375,0.6015625-0.666015625q1.1171875-1.03125,1.8046875-1.6328125q1.375-1.267578125,3.265625-2.857421875q-0.537109375,0.12890625-1.1708984375,0.451171875t-1.03125,0.580078125t-1.1064453125,0.7626953125t-0.966796875,0.6767578125q-0.236328125,0.150390625-1.697265625,1.07421875t-2.212890625,1.41796875q0.451171875,0.12890625,1.009765625,0.12890625l0.794921875,0l0.34375,0z M181.51953125,150.072265625l0.04296875,0l-0.04296875,0q0.0859375-0.04296875,0.2578125-0.04296875l0.150390625,0q0.150390625,0,0.30078125-0.150390625q0.0859375-0.107421875,0.2685546875-0.30078125t0.2685546875-0.30078125q0.64453125-0.6875,1.697265625-1.67578125q-3.244140625,2.212890625-3.65234375,2.470703125l0.150390625,0l0.38671875,0l0.171875,0z M185.708984375,150.244140625q0-0.04296875-0.04296875-0.04296875l0.04296875,0.04296875q0.04296875-0.021484375,0.3544921875-0.193359375t0.4404296875-0.171875q0.0859375,0,0.193359375,0.04296875t0.150390625,0.04296875q0.107421875,0,0.21484375-0.21484375q0.171875-0.38671875,1.24609375-2.27734375q-1.71875,1.095703125-4.017578125,2.44921875l0.171875,0q0.6015625,0,1.24609375,0.322265625z M188.8671875,149.87890625q0.107421875,0.021484375,0.1826171875,0t0.107421875-0.0751953125t0.04296875-0.107421875t0.0322265625-0.193359375t0.04296875-0.2255859375q-0.150390625,0.0859375-0.4619140625,0.279296875t-0.4619140625,0.279296875q0.171875,0.04296875,0.515625,0.04296875z M189.576171875,149.70703125l0,0.0859375l0-0.0859375q0,0.04296875-0.04296875,0.12890625t-0.04296875,0.12890625q0,0.107421875,0.12890625,0.107421875l0-0.193359375q0-0.12890625-0.04296875-0.171875z M189.404296875,147.55859375q-0.064453125,0-0.171875-0.021484375t-0.150390625-0.021484375q-0.34375,0-0.64453125,0.55859375q-0.12890625,0.236328125-0.3974609375,0.751953125t-0.3974609375,0.751953125q0.0859375-0.064453125,0.4833984375-0.3330078125t0.6982421875-0.4189453125t0.580078125-0.21484375q0.0859375-0.0859375,0.0859375-0.666015625q0-0.38671875-0.0859375-0.38671875z M186.58984375,147.193359375q-0.021484375,0-0.064453125,0.021484375t-0.064453125,0.021484375q-0.0859375,0-0.3115234375-0.0751953125t-0.3115234375-0.0966796875q-0.12890625,0-0.3115234375,0.1396484375t-0.38671875,0.3544921875t-0.2685546875,0.2578125q-1.310546875,1.16015625-2.1484375,2.10546875q0.150390625-0.021484375,0.30078125,0.0107421875t0.171875,0.0322265625q0.0859375,0,0.34375-0.12890625q0.193359375-0.107421875,0.6015625-0.322265625t0.6015625-0.322265625q0.47265625-0.279296875,1.41796875-0.880859375t1.439453125-0.880859375q-0.171875-0.0859375-0.55859375-0.150390625t-0.451171875-0.0859375z M181.77734375,142.724609375q0.30078125-0.171875,0.8916015625-0.537109375t0.8701171875-0.537109375q0.0859375-0.04296875,0.365234375-0.171875t0.47265625-0.2255859375t0.365234375-0.2685546875t0.171875-0.34375q-1.697265625,1.07421875-3.13671875,2.083984375z M184.9140625,135.2265625l0-0.12890625q-0.64453125,0.580078125-1.912109375,1.6220703125t-1.439453125,1.1923828125q0.751953125-0.365234375,2.083984375-1.224609375q0.107421875-0.0859375,0.515625-0.3759765625t0.623046875-0.4619140625q0.12890625-0.0859375,0.12890625-0.30078125l0-0.322265625z M186.67578125,131.05859375q0.04296875,0,0.0859375,0.04296875t0.04296875,0.0859375q0.30078125-0.38671875,0.708984375-0.8056640625t0.7197265625-0.6875t0.8486328125-0.7197265625t0.751953125-0.64453125q-2.10546875,1.353515625-2.986328125,1.71875q-0.34375,0.171875-0.494140625,0.171875q-0.0859375,0-0.193359375-0.0966796875t-0.150390625-0.0751953125q0.12890625,0.30078125,0.666015625,1.009765625z M187.599609375,132.025390625q0.0859375,0.0859375,0.2578125,0.34375q0.107421875-0.2578125,0.3330078125-0.5048828125t0.623046875-0.55859375t0.4619140625-0.3759765625q0.451171875-0.38671875,1.310546875-1.095703125t1.009765625-0.837890625q-0.880859375,0.494140625-2.4921875,1.4287109375t-1.912109375,1.1064453125q0.322265625,0.322265625,0.408203125,0.494140625z M188.8671875,133.744140625q0.2578125,0.2578125,0.279296875,0.2578125q0.064453125,0,0.30078125-0.171875q0.12890625-0.0859375,0.751953125-0.5693359375t0.966796875-0.7197265625q0.0859375-0.064453125,0.408203125-0.2900390625t0.4404296875-0.3115234375t0.408203125-0.2578125t0.47265625-0.2685546875t0.4296875-0.21484375t0.4833984375-0.1826171875q0.107421875-0.04296875,0.38671875-0.279296875t0.2578125-0.30078125q-0.064453125-0.12890625-0.12890625-0.12890625q-0.04296875,0-0.12890625,0.04296875q-0.21484375,0.12890625-0.7626953125,0.4619140625t-0.8701171875,0.5048828125q-2.943359375,1.740234375-3.82421875,2.298828125z M193.529296875,140.59765625q0.04296875,0.021484375,0.193359375,0.171875q0.21484375-0.38671875,0.5263671875-0.708984375t0.90234375-0.794921875t0.6767578125-0.55859375q0.064453125-0.064453125,2.27734375-1.890625q0.064453125-0.064453125,0.150390625-0.1181640625t0.12890625-0.0751953125t0.04296875-0.064453125q0-0.0859375-0.04296875-0.171875q-0.04296875,0.021484375-0.966796875,0.6015625q-0.365234375,0.236328125-1.1494140625,0.837890625t-1.41796875,1.0205078125t-1.2783203125,0.6982421875q-0.171875,0.0859375-0.34375,0.0859375q-0.2578125,0-0.2578125-0.2578125l0-0.0859375q0.064453125-0.150390625,0.21484375-0.30078125t0.4189453125-0.3544921875t0.2900390625-0.2255859375q-0.021484375,0.021484375-0.3759765625,0.236328125t-0.6015625,0.408203125t-0.2255859375,0.279296875q0.193359375,0.279296875,0.236328125,0.4296875q0.107421875,0.12890625,0.30078125,0.4189453125t0.30078125,0.4189453125z M194.646484375,142.1015625q-0.021484375-0.021484375,0.2900390625-0.322265625t0.8056640625-0.7412109375t0.966796875-0.859375t0.923828125-0.8056640625t0.515625-0.451171875q-1.8046875,1.052734375-4.0390625,2.341796875q0.0859375,0.12890625,0.2685546875,0.4189453125t0.2685546875,0.4189453125z M199.5234375,139.888671875l-0.666015625,0.408203125q0.171875,0,0.666015625-0.408203125q-2.01953125,1.095703125-4.490234375,2.728515625q0.34375,0.2578125,0.537109375,0.580078125q0.064453125,0.064453125,0.47265625-0.30078125t0.494140625-0.494140625q0.515625-0.4296875,1.50390625-1.267578125t1.482421875-1.24609375z M196.30078125,144.29296875q0.0859375,0.12890625,0.322265625,0.580078125q0.7734375-0.6875,2.3310546875-1.84765625t2.2451171875-1.76171875q0.04296875-0.04296875,0.150390625-0.1181640625t0.171875-0.1181640625t0.107421875-0.107421875t0.04296875-0.150390625l-0.0859375-0.171875q-0.55859375,0.322265625-0.708984375,0.537109375q-0.107421875,0.150390625-0.236328125,0.2685546875t-0.322265625,0.2470703125t-0.322265625,0.193359375t-0.3759765625,0.1826171875t-0.3115234375,0.1611328125q-0.794921875,0.47265625-2.169921875,1.267578125q-0.171875,0.12890625-0.55859375,0.3544921875t-0.451171875,0.2685546875q0.021484375,0.04296875,0.0859375,0.107421875t0.0859375,0.107421875z M197.71875,146.26953125q0.04296875,0.021484375,0.107421875,0.0966796875t0.107421875,0.0966796875q0.21484375-0.34375,0.837890625-0.880859375q-0.923828125,0.408203125-1.224609375,0.47265625q0.021484375,0.04296875,0.0859375,0.107421875t0.0859375,0.107421875z M198.900390625,147.98828125q0.0859375,0.064453125,0.7626953125-0.4296875t1.4931640625-1.138671875t0.837890625-0.666015625q0.515625-0.408203125,1.525390625-1.2138671875t1.50390625-1.2138671875q-3.029296875,2.01953125-4.404296875,2.771484375q-0.0859375,0.064453125-0.3330078125,0.2041015625t-0.365234375,0.2041015625t-0.34375,0.1826171875t-0.38671875,0.1826171875t-0.365234375,0.1396484375t-0.3974609375,0.0966796875q0.365234375,0.537109375,0.47265625,0.880859375z M204.443359375,150.115234375l0.322265625-0.193359375l-0.322265625,0.193359375q0.279296875-0.12890625,1.50390625-0.880859375l0.322265625-0.1611328125t0.4296875-0.2578125t0.21484375-0.2470703125q-0.04296875-0.12890625-0.04296875-0.34375q0-0.107421875,0.021484375-0.3544921875t0.021484375-0.3544921875q0-0.279296875-0.04296875-0.365234375q-1.890625,2.169921875-2.556640625,2.87890625q0.0859375,0.0859375,0.12890625,0.0859375z M200.447265625,150.201171875q0.21484375-0.150390625,0.21484375-0.236328125q-0.0859375,0.064453125-0.21484375,0.236328125q0.30078125-0.193359375,2.2666015625-1.4716796875t3.0615234375-1.8798828125q0.6875-0.38671875,1.009765625-0.47265625q-0.04296875-0.21484375-0.04296875-0.666015625q0-0.666015625,0.04296875-0.966796875q-1.1171875,1.009765625-3.4375,2.5888671875t-2.857421875,1.9873046875q0.81640625-0.47265625,2.3310546875-1.41796875t2.2021484375-1.353515625q1.138671875-0.81640625,1.439453125-0.751953125q0.193359375,0.064453125,0.193359375,0.12890625q0,0.107421875-0.150390625,0.2470703125t-0.322265625,0.2470703125t-0.34375,0.193359375l-0.150390625,0.107421875q-1.2890625,0.666015625-2.470703125,1.396484375q-0.171875,0.107421875-0.6982421875,0.451171875t-0.7841796875,0.5263671875t-0.64453125,0.494140625t-0.64453125,0.6123046875z M206.9140625,142.359375l-0.04296875,0.04296875q0.04296875,0,0.04296875-0.04296875q-0.64453125,0.55859375-1.9228515625,1.5576171875t-1.4287109375,1.1279296875q1.93359375-1.267578125,2.728515625-1.58984375q0.0859375-0.021484375,0.2900390625-0.064453125t0.2685546875-0.1181640625t0.107421875-0.2470703125q-0.04296875-0.21484375-0.04296875-0.666015625z M200.662109375,147.515625l-0.12890625,0.0859375q0,0.021484375,0.1396484375-0.0751953125t0.2900390625-0.1826171875l0.150390625-0.107421875q-0.04296875,0-0.451171875,0.279296875q-0.0859375,0.064453125-0.5693359375,0.4296875t-0.7841796875,0.537109375q0.4296875,0.451171875,0.55859375,0.794921875q0.537109375-0.4296875,1.1708984375-0.880859375t1.396484375-0.9775390625t1.1708984375-0.8271484375q1.203125-0.794921875,2.255859375-1.67578125q0.12890625-0.107421875,0.3974609375-0.3330078125t0.3974609375-0.3330078125q0.0859375-0.0859375,0.1181640625-0.1396484375t0.04296875-0.0966796875t0.021484375-0.1181640625t0.0322265625-0.1611328125q-0.21484375,0.04296875-0.47265625,0.12890625t-0.4189453125,0.1611328125t-0.4619140625,0.2578125t-0.38671875,0.236328125t-0.4404296875,0.279296875t-0.3759765625,0.2470703125q-0.794921875,0.515625-3.65234375,2.470703125z M202.9609375,149.96484375l-0.04296875,0l0.04296875,0l0.12890625,0l0.21484375,0q0.12890625,0,0.30078125,0.107421875l0.171875-0.0859375t0.150390625-0.107421875q0.12890625-0.150390625,0.4189453125-0.4833984375t0.4189453125-0.4833984375q0.30078125-0.34375,0.859375-0.98828125t0.837890625-0.98828125q-0.794921875,0.38671875-1.58984375,0.8701171875t-1.869140625,1.2138671875t-1.50390625,1.009765625l0.12890625,0q0.12890625,0,0.47265625-0.0751953125t0.537109375-0.0751953125q0.150390625,0,0.322265625,0.0859375z M206.61328125,149.96484375l0.04296875,0l-0.04296875,0q0.21484375,0.064453125,0.2578125,0.064453125l0-0.279296875l0-0.55859375q-0.171875,0.107421875-0.5048828125,0.34375t-0.5048828125,0.34375q0.4296875,0.0859375,0.751953125,0.0859375z M206.78515625,140.7265625l0-0.04296875l0,0.04296875q0-0.04296875-0.021484375-0.107421875t-0.021484375-0.107421875q-2.900390625,2.0625-5.2421875,3.5234375q-1.095703125,0.666015625-2.427734375,1.84765625q-0.6875,0.6015625-0.837890625,0.880859375q0.365234375-0.04296875,1.07421875-0.451171875q1.6328125-0.794921875,2.900390625-1.654296875q1.4609375-0.90234375,3.609375-2.341796875q0.021484375-0.021484375,0.1611328125-0.0966796875t0.279296875-0.171875t0.2900390625-0.193359375t0.2470703125-0.171875t0.0751953125-0.1181640625q-0.0859375-0.4296875-0.0859375-0.837890625z M202.810546875,142.53125q0.751953125-0.537109375,2.341796875-1.525390625q0.064453125-0.04296875,0.38671875-0.236328125t0.537109375-0.3330078125t0.4189453125-0.34375t0.2041015625-0.3759765625q-1.203125,0.73046875-5.328125,3.609375q-0.150390625,0.107421875-0.580078125,0.4189453125t-0.6337890625,0.451171875t-0.6015625,0.3974609375t-0.666015625,0.408203125t-0.6337890625,0.322265625t-0.708984375,0.30078125q0.55859375-0.171875,1.0849609375-0.4189453125t1.181640625-0.64453125t0.9453125-0.5908203125t1.1064453125-0.7734375t0.9453125-0.666015625z M204.9375,135.978515625q1.181640625-0.708984375,1.267578125-0.751953125q0.064453125-0.04296875,0.2685546875-0.150390625t0.322265625-0.2041015625t0.1611328125-0.2041015625q0-0.279296875-0.0859375-0.880859375q-1.546875,1.267578125-2.1484375,1.84765625q-0.021484375,0.021484375-0.3330078125,0.2685546875t-0.5048828125,0.4189453125t-0.38671875,0.408203125t-0.193359375,0.38671875q0.2578125-0.193359375,0.81640625-0.5693359375t0.81640625-0.5693359375z M210.91015625,124.26953125l0-0.04296875l0,0.04296875q0-0.34375,0.12890625-0.6015625q0-0.107421875-0.021484375-0.322265625t-0.021484375-0.30078125l0-0.171875q-0.34375,0.451171875-1.396484375,1.267578125q0.150390625,0.021484375,0.21484375,0.0751953125t0.0859375,0.0537109375q0.12890625,0,0.21484375-0.04296875q0.04296875-0.04296875,0.236328125-0.04296875l0.12890625,0q0.2578125,0.0859375,0.4296875,0.0859375z"/><path fill="#" d=""/></svg>
