<?xml version="1.0" encoding="utf-8"?>
<svg viewBox="0 0 500 500" xmlns="http://www.w3.org/2000/svg">
  <defs>
    <path id="path-0" style="fill: none;" d="M 138.417 281.321 C 162.317 227.185 183.278 191.617 204.11 163.433 C 207.285 159.137 217.853 148.463 220.308 142.735 C 233.207 131.336 227.507 134.636 231.107 131.036 C 232.189 129.954 230.994 134.224 230.207 135.535 C 227.287 140.402 228.768 136.074 227.507 143.635 C 226.164 151.697 226.607 159.76 226.607 167.932 C 222.485 202.141 220.308 227.065 220.308 253.424 C 220.308 264.842 227.069 261.085 232.907 266.923 C 250.885 267.822 272.474 258.838 288.701 250.724 C 319.808 227.619 321.097 206.957 321.097 172.432 C 323.195 146.355 320.433 121.33 326.497 103.139 L 326.497 100.439 C 327.275 100.439 328.475 96.839 330.097 96.839"/>
    <linearGradient gradientUnits="userSpaceOnUse" x1="9.392" y1="-20.832" x2="9.392" y2="5.076" id="gradient-0" gradientTransform="matrix(0.744014, -0.90375, 0.451898, 0.680618, 2.008946, 5.971926)">
      <stop offset="0" style="stop-color: rgba(255, 10, 10, 0.72);"/>
      <stop offset="1" style=""/>
    </linearGradient>
  </defs>
  <path transform="matrix(0.809915, 0, 0, 0.809921, 303.820624, 237.225469)" style="fill: rgb(51, 51, 51);"/>
  <path style="fill: rgb(51, 51, 51);"/>
  <path d="M -1.316 -1.193 Q -1.667 -1.193 -1.955 -1.276 Q -2.728 -1.564 -2.719 -2.43 Q -2.724 -2.492 -2.693 -2.615 Q -2.621 -2.904 -2.497 -2.904 Q -2.394 -2.904 -2.343 -2.533 Q -2.342 -1.956 -1.817 -1.832 Q -1.703 -1.791 -1.523 -1.77 Q -1.343 -1.75 -1.178 -1.75 Q -0.415 -1.75 0.383 -2.183 Q 1.181 -2.615 1.936 -3.285 Q 2.69 -3.955 3.341 -4.666 Q 3.993 -5.377 4.446 -5.954 Q 5.784 -7.685 6.847 -9.468 Q 7.91 -11.251 8.97 -13.188 Q 8.238 -12.652 7.45 -12.384 Q 6.662 -12.116 6.008 -12.054 L 5.987 -12.054 Q 5.781 -12.054 5.817 -12.199 Q 5.858 -12.364 6.116 -12.405 Q 6.739 -12.508 7.478 -12.91 Q 8.217 -13.312 8.918 -13.93 Q 9.618 -14.548 10.086 -15.269 Q 10.158 -15.393 10.424 -15.465 Q 10.689 -15.537 10.936 -15.537 Q 11.163 -15.537 11.323 -15.476 Q 11.483 -15.414 11.405 -15.269 Q 11.266 -15.043 11.097 -14.569 Q 10.927 -14.095 10.814 -13.806 Q 10.66 -13.435 10.485 -12.735 Q 10.264 -11.848 10.069 -10.653 Q 9.874 -9.458 9.797 -8.201 Q 9.721 -6.943 9.82 -5.851 Q 9.918 -4.759 10.277 -4.089 Q 10.635 -3.419 11.336 -3.419 Q 12.057 -3.419 12.871 -4.12 Q 13.685 -4.821 14.482 -5.954 Q 15.28 -7.088 15.983 -8.417 Q 16.685 -9.746 17.197 -11.014 Q 17.709 -12.281 17.945 -13.229 Q 18.073 -13.744 18.104 -14.115 Q 18.16 -14.672 18.106 -15.074 Q 18.052 -15.476 17.995 -15.908 L 18 -15.929 Q 18.02 -16.011 18.219 -16.145 Q 18.417 -16.279 18.504 -16.3 Q 18.814 -16.3 18.999 -16.011 Q 19.185 -15.723 19.306 -15.3 Q 19.428 -14.878 19.552 -14.466 Q 19.676 -14.054 19.882 -13.806 Q 20.011 -13.662 20.093 -13.621 Q 20.176 -13.579 20.382 -13.579 L 20.521 -13.641 Q 20.686 -13.641 20.74 -13.61 Q 20.794 -13.579 20.773 -13.415 Q 20.732 -13.25 20.552 -13.147 Q 20.372 -13.044 20.197 -13.002 Q 19.929 -13.002 19.586 -13.281 Q 19.243 -13.559 19.078 -13.724 Q 19.068 -13.6 19.037 -13.476 Q 19.006 -13.353 18.975 -13.229 Q 18.693 -12.096 18.057 -10.705 Q 17.422 -9.313 16.568 -7.912 Q 15.713 -6.511 14.751 -5.336 Q 13.788 -4.161 12.825 -3.44 Q 11.862 -2.718 11.017 -2.718 Q 10.028 -2.718 9.486 -3.316 Q 8.945 -3.914 8.733 -4.924 Q 8.521 -5.934 8.556 -7.149 Q 8.592 -8.365 8.805 -9.633 Q 9.018 -10.9 9.29 -11.993 Q 8.235 -10.323 7.236 -8.839 Q 6.238 -7.356 5.038 -5.851 Q 4.498 -5.171 3.774 -4.378 Q 3.051 -3.584 2.209 -2.852 Q 1.367 -2.121 0.468 -1.657 Q -0.43 -1.193 -1.316 -1.193 Z" transform="matrix(8.531892, 0, 0, 6.307882, 157.314731, 287.56098)" style="fill: url(#gradient-0); paint-order: fill; stroke-opacity: 0.16; stroke-width: 0.134773px;"/>
</svg>